<svg xmlns="http://www.w3.org/2000/svg" viewBox="0 0 792 612"><defs><style>.cls-1{fill:#e0ab96;}.cls-2{fill:#705c3e;}.cls-3{fill:#96c67d;}.cls-4{fill:#709b57;}.cls-5{fill:#d1c199;}.cls-6{fill:#eadec3;}</style></defs><title>scene</title><g id="Layer_2" data-name="Layer 2"><g id="sky"><rect class="cls-1" x="1" width="791" height="459"/></g><g id="trees"><polygon class="cls-2" points="708.13 460.11 706.85 420.13 700.24 370.32 693.4 344.52 683.19 306.83 666.39 282.36 647.79 263.95 620.97 238.8 615.29 248.99 642.4 283.13 658.68 322.63 664 363.48 663.87 421.51 658.03 457.72 708.13 460.11"/><polygon class="cls-3" points="623.8 233.71 614.19 277.04 589.91 299.83 559.25 310.82 569.15 276.49 592.91 237.7 623.8 233.71"/><polygon class="cls-4" points="623.25 234.48 592.25 202.72 559.6 196.14 527.75 202.96 554.26 226.92 594.9 247.36 623.25 234.48"/><polygon class="cls-4" points="617.53 241.88 650.02 272.13 682.95 277.13 714.43 268.8 686.81 246.13 645.24 227.66 617.53 241.88"/><polygon class="cls-3" points="612.96 241.69 624.4 198.8 649.63 177.07 680.74 167.39 669.38 201.27 643.98 239.01 612.96 241.69"/><polygon class="cls-2" points="80.48 458.88 81.72 418.9 88.27 369.08 95.08 343.28 105.25 305.58 122.03 281.09 140.61 262.66 167.4 237.48 173.09 247.66 146.01 281.83 129.78 321.35 124.5 362.2 124.7 420.24 130.58 456.44 80.48 458.88"/><polygon class="cls-3" points="164.56 232.39 174.22 275.71 198.52 298.47 229.19 309.43 219.26 275.11 195.45 236.35 164.56 232.39"/><polygon class="cls-4" points="165.11 233.15 196.08 201.36 228.72 194.75 260.57 201.53 234.09 225.53 193.48 246.01 165.11 233.15"/><polygon class="cls-4" points="170.84 240.55 138.38 270.83 105.46 275.88 73.97 267.58 101.57 244.88 143.11 226.36 170.84 240.55"/><polygon class="cls-3" points="175.41 240.35 163.92 197.48 138.67 175.77 107.55 166.13 118.94 200 144.38 237.71 175.41 240.35"/></g><g id="sand"><rect class="cls-5" y="457" width="791" height="155"/></g><g id="sun"><circle class="cls-6" cx="398" cy="155" r="67"/></g></g></svg>