<svg xmlns="http://www.w3.org/2000/svg" viewBox="0 0 640.47 293.98"><defs><style>.cls-1{fill:#705c3e;}.cls-2{fill:#96c67d;}.cls-3{fill:#709b57;}</style></defs><title>trees</title><g id="Layer_2" data-name="Layer 2"><g id="trees"><polygon class="cls-1" points="634.17 293.98 632.88 254 626.27 204.19 619.44 178.39 609.22 140.7 592.42 116.23 573.82 97.82 547 72.67 541.32 82.86 568.44 117 584.72 156.5 590.03 197.35 589.9 255.38 584.06 291.59 634.17 293.98"/><polygon class="cls-2" points="549.84 67.58 540.23 110.91 515.95 133.7 485.29 144.69 495.19 110.36 518.95 71.57 549.84 67.58"/><polygon class="cls-3" points="549.29 68.34 518.28 36.59 485.64 30.01 453.79 36.83 480.3 60.79 520.93 81.23 549.29 68.34"/><polygon class="cls-3" points="543.57 75.75 576.05 105.99 608.98 111 640.47 102.67 612.84 80 571.28 61.53 543.57 75.75"/><polygon class="cls-2" points="538.99 75.55 550.44 32.67 575.67 10.93 606.77 1.26 595.41 35.14 570.02 72.88 538.99 75.55"/><polygon class="cls-1" points="6.51 292.75 7.75 252.77 14.31 202.95 21.11 177.15 31.29 139.45 48.06 114.96 66.64 96.53 93.44 71.35 99.12 81.53 72.05 115.7 55.81 155.22 50.54 196.07 50.73 254.11 56.61 290.31 6.51 292.75"/><polygon class="cls-2" points="90.59 66.25 100.25 109.58 124.56 132.34 155.23 143.3 145.29 108.98 121.48 70.22 90.59 66.25"/><polygon class="cls-3" points="91.14 67.02 122.11 35.23 154.75 28.62 186.61 35.4 160.13 59.39 119.51 79.88 91.14 67.02"/><polygon class="cls-3" points="96.87 74.42 64.42 104.7 31.5 109.74 0 101.45 27.6 78.75 69.15 60.23 96.87 74.42"/><polygon class="cls-2" points="101.45 74.22 89.95 31.35 64.7 9.64 33.59 0 44.98 33.87 70.42 71.58 101.45 74.22"/></g></g></svg>